<?xml version="1.0" encoding="utf-8"?>
<!-- Generator: Adobe Illustrator 17.0.0, SVG Export Plug-In . SVG Version: 6.00 Build 0)  -->
<!DOCTYPE svg PUBLIC "-//W3C//DTD SVG 1.1//EN" "http://www.w3.org/Graphics/SVG/1.1/DTD/svg11.dtd">
<svg version="1.1" id="Calque_1" xmlns="http://www.w3.org/2000/svg" xmlns:xlink="http://www.w3.org/1999/xlink" x="0px" y="0px"
	 width="529.5px" height="172px" viewBox="0 0 529.5 172" enable-background="new 0 0 529.5 172" xml:space="preserve">
<path d="M497.075,137.179h4.131v30.726h-4.131v0.629h28.705v-9.84h-0.584c-1.213,5.213-4.582,9.211-10.107,9.211h-7.367v-16.217
	h3.008c4.137,0,5.483,3.144,6.29,6.648h0.584v-13.969h-0.584c-0.852,4.04-2.381,6.691-6.782,6.691h-2.516v-13.88h7.144
	c5.929,0,7.859,5.077,8.488,7.053h0.584v-7.682h-26.863V137.179z M463.653,137.179h4.132v30.726h-4.132v0.629h8.983v-0.629h-4.132
	v-28.168h0.09l20.215,28.797h1.215v-31.355h4.132v-0.629h-8.986v0.629h4.132v20.754h-0.089l-14.957-21.383h-10.603V137.179z
	 M445.595,137.179h4.132v30.726h-4.132v0.629h14.778v-0.629h-4.131v-30.726h4.131v-0.629h-14.778V137.179z M414.597,168.533h27
	v-10.149h-0.584c-1.527,7.005-5.929,9.52-10.646,9.52h-8.132l18.149-31.354h-23.271v7.503h0.587
	c1.839-4.181,3.816-6.874,8.713-6.874h6.243L414.597,168.533z M397.888,155.234h-10.333l5.03-12.261L397.888,155.234z
	 M377.81,168.533h8.532v-0.629h-3.997l4.987-12.041h10.778l5.211,12.041h-4.176v0.629h15.093v-0.629h-3.862l-14.149-32.612h-1.215
	l-13.386,32.612h-3.816V168.533z M373.405,136.55h-0.765c-0.314,0.718-0.584,0.943-1.392,0.943c-1.574,0-4.674-1.666-8.309-1.666
	c-7.685,0-16.804,6.649-16.804,16.804c0,9.253,7.998,16.578,16.804,16.578c5.522,0,7.366-2.745,10.24-2.745
	c0.719,0,1.35,0.318,1.483,1.037h0.807V157.21h2.921v-0.624h-13.88v0.624h4.627v1.708c0,5.434-0.676,9.662-6.156,9.662
	c-6.736,0-9.523-3.684-9.523-14.603c0-7.546-0.537-17.517,9.523-17.517c5.168-0.047,8.224,3.411,9.751,9.253h0.673V136.55z
	 M330.182,155.234h-10.333l5.03-12.261L330.182,155.234z M310.101,168.533h8.533v-0.629h-3.998l4.988-12.041h10.78l5.211,12.041
	h-4.179v0.629h15.096v-0.629h-3.861l-14.152-32.612h-1.213l-13.388,32.612h-3.817V168.533z M271.199,137.179h4.131v30.726h-4.131
	v0.629h8.983v-0.629h-4.135v-30.726h0.092l11.096,31.355h0.718l11.05-31.355h0.092v30.726h-4.089v0.629h14.736v-0.629h-4.135
	v-30.726h4.135v-0.629h-11.231l-7.906,22.368h-0.092l-7.77-22.368h-11.543V137.179z"/>
<path d="M405.562,123.538h35.87v-2.304h-9.049V85.857h1.809l29.123,35.377h-11.682v2.304h37.023v-2.304h-7.075l-36.364-43.933
	l25.668-22.049h9.872v-2.302h-25.503v2.302h11.682l-32.743,28.301h-1.809V4.903h-26.821v2.304h12.669v114.027h-12.669V123.538z
	 M302.133,123.538H402.5V87.503h-1.809c-1.316,10.037-8.721,33.731-32.743,33.731H336.85v-59.4h13.328
	c15.795,0,18.43,12.013,21.388,24.681h1.812v-51.17h-1.812c-4.77,19.743-9.375,24.186-24.022,24.186H336.85V8.689h27.314
	c18.098,0,24.682,9.048,30.274,26.161h1.811V6.385h-94.117v2.304h18.263v112.545h-18.263V123.538z M199.334,123.538h100.368V87.503
	h-1.809c-1.316,10.037-8.721,33.731-32.743,33.731h-31.099v-59.4h13.328c15.795,0,18.43,12.013,21.389,24.681h1.81v-51.17h-1.81
	c-4.771,19.743-9.376,24.186-24.024,24.186h-10.693V8.689h27.312c18.101,0,24.685,9.048,30.277,26.161h1.81V6.385h-94.116v2.304
	h18.264v112.545h-18.264V123.538z M104.28,123.538h39.49v-2.304h-12.668V84.048c0-17.443,12.01-30.606,26.161-30.606
	c8.558,0,12.505,6.088,12.505,14.646v53.146H157.1v2.304h39.489v-2.304h-12.671V73.189c0-15.304-10.037-22.051-24.514-22.051
	c-17.938,0-25.671,12.505-27.972,18.431h-0.33V4.903H104.28v2.304h12.672v114.027H104.28V123.538z M100.967,88.491h-1.809
	c-4.445,16.785-9.379,35.211-38.668,35.211c-22.705,0-38.339-12.177-38.339-58.413c0-24.68,3.292-59.562,38.339-59.562
	c25.176,0,32.415,16.781,36.365,33.565h1.809V6.385h-2.467c-1.483,1.809-2.962,3.455-7.242,3.455c-6.58,0-13.326-6.417-26.984-6.417
	c-33.566,0-58.741,28.96-58.741,61.866c0,19.252,8.229,33.896,18.922,44.59c11.521,11.355,24.847,16.127,38.668,16.127
	c15.138,0,24.022-5.922,30.439-5.922c4.113,0,5.759,1.807,7.241,3.454h2.467V88.491z"/>
</svg>
